<?xml version="1.0" standalone="no"?>
<!DOCTYPE svg PUBLIC "-//W3C//DTD SVG 20010904//EN"
 "http://www.w3.org/TR/2001/REC-SVG-20010904/DTD/svg10.dtd">
<svg version="1.0" xmlns="http://www.w3.org/2000/svg"
 width="227.000000pt" height="300.000000pt" viewBox="0 0 227.000000 300.000000"
 preserveAspectRatio="xMidYMid meet">
<metadata>
Created by potrace 1.10, written by Peter Selinger 2001-2011
</metadata>
<g transform="translate(0.000000,300.000000) scale(0.100000,-0.100000)"
fill="#000000" stroke="none">
<path d="M1126 2979 c-25 -79 -30 -95 -28 -103 5 -17 -35 -35 -79 -36 -37 0
-52 -5 -70 -25 -14 -15 -35 -25 -52 -25 -16 0 -26 -4 -23 -8 2 -4 -8 -8 -22
-7 -16 0 -26 -5 -25 -12 2 -7 -3 -10 -11 -7 -26 10 -61 -56 -61 -112 0 -57 19
-89 56 -91 24 -2 35 -10 26 -19 -4 -4 -13 -1 -22 6 -9 7 -15 8 -15 2 0 -6 3
-12 8 -14 25 -12 81 -88 86 -119 6 -35 4 -38 -56 -88 -111 -92 -283 -160 -402
-161 -35 0 -45 6 -87 51 -42 46 -51 51 -76 44 -15 -3 -46 -9 -68 -12 -26 -3
-51 -16 -71 -35 -17 -16 -46 -37 -64 -46 -41 -21 -45 -29 -58 -116 -13 -83 -7
-101 44 -136 25 -17 38 -33 37 -46 -7 -54 -24 -203 -47 -414 -14 -129 -30
-274 -36 -322 -11 -94 -8 -114 21 -123 22 -7 25 -42 20 -206 -5 -157 21 -191
229 -294 160 -80 213 -115 340 -224 112 -96 279 -213 353 -246 106 -47 255
-40 357 17 82 46 234 156 335 244 114 99 191 148 347 223 138 66 180 102 199
173 6 24 8 63 5 88 -4 25 -3 84 0 132 6 71 10 89 24 93 26 8 30 26 20 102 -5
37 -19 158 -30 268 -21 199 -53 437 -65 487 -6 24 -3 29 27 41 57 24 68 41 67
110 0 84 -17 127 -59 154 -19 12 -50 34 -69 48 -21 15 -47 25 -68 25 -18 0
-42 5 -52 12 -28 17 -78 -7 -107 -54 -23 -35 -27 -38 -73 -38 -120 0 -308 77
-409 168 -49 44 -52 49 -46 82 4 24 25 56 70 104 66 72 83 110 69 163 -10 40
-45 85 -62 79 -8 -3 -11 -2 -8 3 7 12 -31 24 -46 15 -8 -4 -9 -3 -5 4 5 8 -3
12 -23 12 -17 0 -34 7 -39 16 -8 14 -72 43 -99 44 -6 0 -20 -8 -29 -17 -17
-17 -18 -17 -11 0 4 11 1 20 -8 24 -9 3 -14 10 -13 17 2 14 -23 98 -33 110 -5
5 -10 3 -13 -5z m1 -79 c-3 -12 0 -20 8 -20 8 0 11 8 8 23 -4 20 -3 20 7 4 14
-22 6 -47 -14 -47 -20 0 -29 16 -21 40 8 26 19 26 12 0z m57 -160 c1 -83 -1
-103 -15 -116 -25 -23 -31 -53 -9 -47 22 6 36 -15 22 -29 -8 -8 -16 -7 -27 2
-14 11 -20 11 -37 1 -17 -10 -22 -10 -29 0 -11 18 0 32 21 26 22 -6 16 24 -11
48 -15 15 -17 27 -12 80 3 37 1 76 -6 95 -9 28 -9 31 4 20 13 -11 14 -10 9 6
-7 18 -6 18 12 2 18 -15 20 -29 18 -106 -2 -96 3 -118 24 -96 7 8 9 14 4 14
-5 0 -7 18 -5 41 3 32 1 39 -9 33 -9 -5 -8 -2 2 11 13 17 13 18 0 10 -13 -7
-13 -6 -2 7 7 8 10 23 6 31 -5 15 25 81 34 72 2 -2 5 -49 6 -105z m-218 64
c-9 -8 -14 -20 -11 -25 4 -5 1 -9 -6 -9 -7 0 -9 -3 -6 -7 4 -3 19 6 34 21 14
15 32 25 40 22 7 -3 13 -1 13 3 0 15 35 5 38 -11 4 -20 -23 -40 -53 -40 -20 0
-25 -5 -25 -27 0 -15 7 -36 15 -49 13 -18 14 -26 4 -44 -7 -13 -13 -35 -14
-50 -1 -22 1 -25 11 -17 10 9 15 7 20 -5 4 -9 4 -20 0 -23 -11 -12 -56 17 -66
42 -5 14 -17 28 -25 32 -16 6 -16 37 -2 145 4 30 23 58 39 58 5 0 2 -7 -6 -16z
m274 5 c0 -5 6 -6 13 -3 16 6 57 -31 57 -51 0 -8 4 -15 8 -15 5 0 9 7 9 15 0
8 -4 15 -9 15 -5 0 -6 5 -2 12 4 6 -1 17 -11 25 -11 7 -14 13 -8 13 16 0 35
-28 40 -58 12 -84 11 -141 -2 -145 -7 -3 -19 -19 -27 -35 -14 -27 -14 -29 2
-25 10 3 21 0 24 -6 4 -5 13 -8 21 -4 8 3 15 1 15 -4 0 -17 -13 -23 -26 -12
-8 7 -14 7 -19 -1 -4 -7 -13 -6 -26 4 -11 7 -29 12 -40 9 -12 -4 -19 0 -19 9
0 21 11 29 25 18 16 -13 13 36 -3 67 -10 18 -9 29 4 57 20 41 13 66 -19 66
-28 0 -52 23 -44 43 5 15 37 19 37 6z m-320 -69 c0 -21 -27 -40 -59 -40 -26 0
-36 -35 -22 -74 8 -19 8 -33 0 -48 -11 -20 -11 -20 -30 -2 -18 18 -45 119 -29
109 11 -7 22 24 13 37 -3 6 -2 8 4 5 5 -3 22 3 39 14 39 26 84 26 84 -1z m148
-33 c-2 -39 2 -60 15 -81 22 -33 20 -36 -26 -42 -44 -5 -53 7 -33 47 14 28 14
34 1 52 -27 39 -16 57 43 76 2 1 2 -23 0 -52z m175 36 c21 -7 22 -31 2 -61
-14 -19 -14 -24 1 -47 23 -36 12 -56 -28 -51 -18 3 -36 5 -40 5 -14 2 -9 17
12 39 18 19 20 27 11 60 -16 56 -14 76 7 67 9 -4 25 -10 35 -12z m191 -2 c17
-11 34 -17 39 -14 6 3 7 1 4 -5 -9 -13 2 -44 13 -37 16 10 -11 -91 -29 -109
-19 -18 -19 -18 -30 2 -8 15 -8 29 0 48 14 39 4 74 -22 74 -32 0 -59 19 -59
40 0 27 45 27 84 1z m-503 -137 c17 -18 18 -23 5 -33 -8 -7 -30 -14 -48 -15
l-33 -3 -1 64 c-2 59 0 63 18 57 13 -4 18 -2 14 4 -3 6 0 12 6 15 9 2 14 -9
16 -32 2 -20 12 -45 23 -57z m472 72 c13 5 15 -4 14 -55 -2 -65 -16 -79 -62
-61 -33 13 -37 25 -15 45 14 12 20 31 20 59 1 36 2 39 14 23 8 -10 20 -15 29
-11z m-430 -123 c4 -3 2 -12 -4 -20 -8 -9 -15 -10 -24 -3 -9 8 -15 8 -20 0 -7
-12 -25 -4 -25 12 0 5 7 8 15 5 8 -4 17 -2 20 3 7 11 29 13 38 3z m219 -22
c14 7 23 7 34 -1 7 -7 25 -9 38 -6 14 3 28 2 31 -4 3 -5 17 -10 31 -10 13 0
33 -5 44 -12 10 -7 23 -9 27 -5 4 5 1 12 -7 17 -12 7 -12 12 -3 21 9 9 16 9
29 -2 14 -12 12 -17 -27 -51 -36 -31 -42 -41 -33 -56 5 -9 8 -24 7 -33 -3 -14
-10 -15 -41 -8 -20 5 -48 8 -62 8 -23 -1 -23 -2 -4 -7 12 -4 34 -22 49 -40 26
-31 125 -106 173 -131 40 -21 23 -3 -35 38 -32 22 -67 49 -78 59 -90 81 -54
83 46 2 41 -33 106 -76 145 -95 81 -40 207 -75 269 -75 41 0 86 -22 73 -35 -7
-8 -166 17 -203 30 -14 6 -17 5 -10 -3 12 -14 104 -38 179 -47 31 -4 59 -11
62 -16 7 -12 -43 -11 -136 2 -41 6 -97 12 -125 14 -80 6 -325 92 -325 115 0 4
-6 7 -13 7 -12 0 -100 54 -141 87 -10 8 -15 20 -11 26 4 7 18 1 39 -18 38 -33
105 -76 111 -70 2 2 -25 25 -60 51 -36 25 -65 53 -65 62 0 21 6 19 46 -11 19
-15 34 -22 34 -16 0 6 -13 20 -30 32 -18 13 -27 26 -23 35 11 31 -14 13 -45
-30 -18 -25 -32 -47 -32 -48 0 -2 29 -24 64 -50 179 -131 442 -217 667 -217
86 0 88 0 109 -31 21 -29 22 -40 23 -277 0 -136 -3 -328 -8 -428 l-7 -180 88
3 c115 5 157 -13 162 -69 3 -35 1 -37 -35 -47 -222 -59 -232 -76 -92 -147 58
-29 93 -54 75 -54 -13 0 -133 65 -156 84 l-24 21 15 -23 c8 -13 46 -40 84 -60
80 -42 89 -63 60 -138 -20 -54 -76 -100 -165 -138 -130 -56 -211 -109 -362
-234 -232 -193 -363 -276 -460 -290 -144 -21 -265 39 -548 273 -173 142 -203
162 -351 235 -167 81 -209 124 -209 213 l0 45 72 37 c89 46 80 38 85 80 3 34
1 37 -39 54 -24 11 -68 24 -99 30 -77 16 -91 28 -83 70 10 49 54 64 166 59
l88 -4 -5 135 c-3 75 -10 255 -16 401 -5 146 -12 277 -15 291 -4 19 0 32 16
47 13 12 17 22 11 26 -5 4 -21 -6 -35 -21 -25 -26 -26 -26 -46 -8 -11 10 -23
15 -26 12 -4 -3 6 -17 21 -30 l27 -23 -28 -19 c-39 -25 -83 -24 -122 4 -39 27
-43 73 -10 108 12 13 17 23 11 23 -21 0 -22 29 -2 54 16 20 29 26 60 26 21 0
39 5 39 10 0 6 -7 10 -16 10 -37 0 38 42 94 52 55 10 61 9 91 -13 57 -42 51
-103 -16 -141 -29 -18 -34 -18 -69 -3 -24 10 -41 12 -47 6 -6 -6 7 -14 34 -22
59 -16 246 -5 374 21 250 51 434 143 548 273 l56 64 -37 -3 c-20 -1 -53 -3
-72 -4 -28 -1 -43 -11 -74 -46 -48 -55 -36 -57 22 -4 24 22 50 40 58 40 25 0
-31 -63 -96 -109 -33 -23 -60 -45 -60 -47 0 -15 92 49 143 99 68 66 100 73 43
9 -78 -86 -185 -148 -359 -209 -87 -30 -317 -72 -399 -73 -51 0 -29 17 29 24
69 8 183 37 183 47 0 4 -24 1 -52 -6 -76 -19 -158 -28 -158 -18 0 19 26 33 61
33 48 0 168 25 215 45 44 18 47 18 38 3 -4 -7 -3 -8 5 -4 6 4 9 12 6 17 -4 5
0 9 8 9 16 0 140 86 177 122 14 14 39 28 55 32 l30 7 -35 -36 c-19 -20 -61
-55 -93 -77 -32 -22 -56 -42 -53 -45 8 -9 109 64 161 116 27 28 57 51 67 51 9
0 19 4 22 9 3 5 -24 3 -59 -4 -46 -8 -65 -9 -66 -1 0 6 -2 24 -4 41 -3 21 -2
26 5 15 5 -8 10 -10 10 -5 0 6 -18 26 -41 44 -36 31 -39 35 -25 50 13 12 18
13 28 3 10 -10 10 -15 -2 -22 -8 -5 -11 -12 -7 -17 4 -4 17 -2 27 5 11 7 31
12 44 12 14 0 28 5 31 10 3 6 17 7 31 4 13 -3 31 -1 38 6 11 8 20 8 34 1 14
-7 24 -7 38 3 16 12 22 12 38 0 14 -9 24 -10 38 -3z m916 -328 c40 -19 50 -33
22 -33 -12 0 -18 -4 -15 -10 3 -5 23 -10 44 -10 22 0 44 -6 51 -15 7 -8 9 -15
4 -15 -4 0 0 -6 10 -13 16 -12 16 -14 2 -26 -14 -12 -14 -16 4 -38 28 -36 25
-93 -6 -93 -8 0 -14 -4 -14 -9 0 -5 -14 -14 -31 -20 -33 -11 -89 4 -104 29 -8
12 12 34 39 43 6 2 8 8 4 12 -5 5 -16 1 -27 -9 -15 -13 -23 -15 -47 -6 -27 11
-44 26 -44 42 0 4 21 13 46 19 31 8 42 15 35 22 -7 7 -23 5 -49 -7 -45 -20
-66 -14 -101 30 -29 37 -27 79 5 111 23 23 30 25 82 18 31 -4 72 -14 90 -22z
m-45 -271 c9 -10 32 -24 52 -32 19 -8 35 -17 35 -22 0 -4 -7 -5 -14 -2 -11 4
-14 0 -11 -18 2 -12 6 -54 9 -93 13 -158 28 -273 42 -315 19 -59 29 -146 18
-152 -5 -3 -26 -3 -47 0 -44 5 -43 0 -14 117 9 33 14 62 12 65 -1 3 -6 41 -10
85 -4 44 -8 82 -10 85 -2 3 -6 41 -10 85 -4 44 -8 89 -10 100 -1 11 -3 28 -4
38 0 10 -6 15 -11 12 -7 -4 -10 -61 -9 -153 1 -127 4 -155 24 -209 20 -53 21
-62 8 -67 -48 -19 -67 2 -57 64 7 51 4 372 -4 384 -4 6 -10 -7 -13 -29 -6 -37
-6 -36 -8 18 -1 60 6 68 32 39z m-1848 -13 c-4 -12 -8 -124 -9 -248 l-1 -226
-25 3 c-38 6 -44 17 -25 54 20 40 32 136 34 286 1 73 -2 112 -8 112 -6 0 -11
-6 -12 -12 0 -7 -2 -22 -4 -33 -2 -11 -7 -47 -10 -82 -3 -34 -7 -70 -9 -80 -6
-32 -20 -187 -20 -218 1 -32 7 -67 22 -128 11 -42 10 -44 -38 -49 -32 -3 -35
-1 -38 27 -2 16 4 59 12 95 22 88 22 93 31 180 4 41 9 84 11 95 2 11 6 58 9
105 7 131 -9 48 -30 -153 -10 -98 -22 -177 -27 -177 -11 0 -10 3 8 154 32 270
30 262 74 280 21 8 41 20 45 26 11 18 17 11 10 -11z m1978 -414 c4 -45 3 -55
-5 -41 -9 17 -19 99 -32 281 -6 74 26 -131 37 -240z m-2028 57 c-14 -14 -16
15 -9 100 l9 93 3 -94 c1 -51 0 -96 -3 -99z m1948 48 c3 -54 2 -71 -3 -45 -11
57 -18 159 -10 143 4 -7 10 -51 13 -98z m-5 -217 c-13 -69 -11 -86 8 -100 26
-19 81 -16 94 5 9 13 10 8 8 -25 -2 -24 0 -43 4 -43 5 0 8 -16 8 -35 0 -26 -4
-35 -17 -35 -15 0 -14 -2 3 -16 19 -15 19 -16 -1 -9 -11 4 -55 10 -97 13 -63
4 -78 8 -79 21 -4 52 4 247 9 253 4 3 21 8 37 11 17 2 30 5 31 6 0 0 -3 -20
-8 -46z m-1885 15 c9 -34 11 -214 3 -227 -4 -6 -4 -15 -1 -21 4 -6 -18 -10
-60 -10 -36 0 -82 -7 -101 -15 l-36 -15 7 63 c10 99 15 121 28 108 14 -14 62
-14 88 -1 14 8 19 21 19 51 0 24 -4 38 -10 34 -6 -4 -10 7 -10 24 0 29 3 31
34 31 27 0 35 -5 39 -22z m1972 -472 c-5 -29 -12 -46 -21 -46 -8 0 -14 -5 -14
-11 0 -6 -6 -9 -12 -6 -7 2 -12 10 -10 17 1 7 -4 9 -15 6 -10 -3 -25 -1 -33 4
-13 9 -13 10 0 10 12 0 12 2 1 9 -26 16 5 48 56 58 27 5 49 8 51 7 2 -1 0 -23
-3 -48z m-2028 29 c2 0 4 -17 5 -36 3 -32 1 -34 -27 -32 -20 2 -25 -1 -16 -6
11 -7 11 -10 0 -17 -7 -4 -14 -3 -17 4 -2 7 -11 12 -19 12 -12 0 -13 3 -3 15
6 8 9 19 6 24 -4 6 -1 19 6 30 9 15 19 19 38 14 14 -3 26 -7 27 -8z m57 -74
c-5 -4 -45 -27 -89 -50 -52 -28 -73 -35 -60 -22 21 21 146 89 154 84 3 -2 0
-7 -5 -12z"/>
<path d="M943 2683 c2 -15 9 -29 15 -31 13 -4 14 3 6 36 -9 31 -25 28 -21 -5z"/>
<path d="M1313 2717 c0 -7 -3 -25 -7 -40 -3 -15 -3 -27 2 -27 5 0 9 6 10 13 1
6 4 24 8 40 3 15 2 27 -3 27 -5 0 -10 -6 -10 -13z"/>
<path d="M825 2715 c-16 -15 -25 -35 -24 -52 1 -26 2 -26 9 6 5 19 19 43 32
53 12 9 19 18 15 18 -4 0 -19 -11 -32 -25z"/>
<path d="M1433 2715 c15 -15 28 -39 28 -54 2 -23 2 -23 6 -4 5 28 -11 59 -40
74 -19 10 -18 8 6 -16z"/>
<path d="M1050 2238 c-158 -122 -387 -197 -661 -217 l-114 -8 90 -1 c212 -3
445 55 601 150 49 29 167 127 154 127 -3 0 -34 -23 -70 -51z"/>
<path d="M1140 2281 c0 -18 124 -111 200 -150 143 -74 300 -111 490 -116 l135
-4 -120 9 c-272 20 -475 90 -642 221 -35 27 -63 45 -63 40z"/>
<path d="M265 2166 c-13 -9 -16 -19 -10 -32 7 -17 8 -18 12 -1 4 17 15 21 42
17 13 -1 13 1 2 14 -16 19 -22 20 -46 2z"/>
<path d="M717 2003 c3 -21 11 -45 17 -53 18 -24 46 -77 46 -87 0 -6 -11 -15
-25 -21 -24 -11 -26 -9 -51 41 -15 28 -31 55 -37 58 -5 4 -7 14 -4 24 8 20 27
11 27 -13 1 -17 49 -114 50 -99 0 4 -8 24 -17 45 -9 20 -19 48 -23 62 -6 27
-49 42 -51 18 -1 -7 -2 -18 -3 -25 0 -6 -34 -35 -74 -63 -70 -49 -92 -78 -92
-122 0 -12 -11 -35 -24 -52 -41 -55 -58 -96 -55 -139 2 -34 -4 -51 -29 -86
-67 -92 -79 -233 -33 -365 29 -83 95 -225 104 -226 4 0 7 30 7 68 0 68 15 143
31 152 5 3 -1 34 -13 68 -19 57 -20 68 -9 120 7 31 12 77 12 101 -1 35 6 56
34 98 19 29 39 53 44 53 5 0 11 9 14 21 5 18 2 20 -16 14 -58 -17 -109 -26
-124 -21 -14 6 -14 9 3 27 25 27 114 93 119 87 2 -2 -20 -23 -50 -47 -30 -23
-55 -47 -55 -52 0 -14 41 10 61 35 20 26 109 90 109 79 -1 -4 -26 -28 -55 -53
-30 -24 -55 -48 -55 -53 0 -14 53 23 110 77 28 26 54 45 58 42 3 -4 -18 -29
-48 -56 -30 -27 -49 -49 -42 -50 7 0 35 21 62 46 58 54 68 48 13 -8 -54 -56
-33 -58 26 -3 56 52 70 51 19 -2 -17 -18 -29 -35 -27 -38 3 -2 24 15 48 39
l43 44 -44 13 c-31 10 -43 19 -42 32 2 14 -1 15 -12 6 -8 -7 -17 -10 -19 -7
-13 12 186 148 217 148 5 0 26 8 45 17 25 12 40 14 52 7 24 -15 53 -80 49
-111 -4 -25 -6 -22 -17 20 -8 26 -22 52 -31 57 -20 11 -77 3 -86 -11 -3 -5
-14 -9 -24 -9 -36 0 -152 -79 -156 -106 -3 -21 2 -18 67 36 60 50 82 63 59 35
-22 -27 -3 -27 25 0 16 14 31 23 34 19 3 -3 -2 -10 -12 -15 -9 -6 -17 -14 -17
-19 0 -15 22 -12 42 7 18 16 25 7 11 -13 -5 -5 4 3 18 18 34 37 46 36 19 -2
-12 -16 -19 -34 -16 -39 3 -5 -6 -8 -19 -8 -14 0 -25 2 -25 6 0 4 -25 6 -55 6
-46 0 -59 -4 -82 -27 -15 -16 -23 -28 -17 -28 6 0 21 11 34 25 13 14 28 25 34
25 5 0 -3 -13 -18 -29 -17 -17 -23 -31 -17 -35 6 -4 22 7 37 24 15 16 32 30
37 30 6 0 0 -11 -13 -25 -32 -34 -18 -44 15 -11 33 33 42 33 21 1 -10 -16 -12
-25 -5 -25 6 0 20 11 31 25 27 35 44 31 19 -4 -30 -42 -26 -49 9 -16 18 17 30
38 28 50 -3 25 20 67 33 60 6 -4 5 -13 -1 -25 -14 -26 -12 -34 4 -20 12 9 15
8 13 -12 -2 -13 -8 -34 -16 -46 -16 -29 -7 -40 19 -24 29 18 35 15 15 -8 -17
-19 -55 -28 -55 -12 0 4 -11 8 -25 8 -14 1 -25 -4 -25 -10 0 -18 -73 -83 -88
-78 -7 2 5 19 29 42 23 22 36 40 30 44 -5 4 -29 -14 -52 -39 -23 -25 -46 -45
-52 -45 -6 0 8 20 32 44 28 29 39 46 31 51 -6 4 -12 5 -14 4 -1 -2 -17 -25
-36 -51 -37 -50 -55 -62 -73 -51 -6 4 -24 8 -39 10 -22 2 -26 -1 -22 -15 4
-11 3 -13 -3 -5 -4 6 -22 14 -38 17 l-30 6 28 -11 c15 -6 27 -15 27 -21 0 -6
-7 -7 -15 -4 -9 3 -18 -1 -21 -9 -3 -7 -12 -11 -19 -8 -11 4 -12 -2 -5 -26 4
-17 11 -35 15 -41 3 -5 -6 -15 -21 -20 -21 -8 -29 -8 -36 2 -5 9 -8 8 -8 -6 0
-14 5 -17 23 -12 l23 6 -25 -54 c-23 -48 -27 -52 -40 -37 -12 14 -12 12 -6
-14 4 -16 7 -37 7 -45 0 -8 6 -32 14 -53 13 -33 12 -42 -6 -90 -34 -90 -21
-205 36 -318 24 -49 118 -158 128 -149 3 4 -7 35 -22 70 -39 93 -39 202 1 282
27 56 28 58 13 113 -8 32 -17 59 -20 63 -3 3 17 29 44 58 54 57 59 76 36 142
l-14 40 41 38 c100 94 106 98 120 86 8 -7 16 -10 19 -7 10 10 35 -32 83 -137
43 -96 46 -108 32 -122 -13 -14 -16 -14 -21 0 -3 8 -2 12 4 9 6 -3 10 -4 10
-1 0 14 -111 238 -116 234 -3 -3 11 -38 30 -77 20 -39 36 -74 35 -78 0 -5 -22
35 -49 87 -27 52 -49 88 -49 80 0 -8 31 -75 68 -149 61 -119 68 -137 59 -163
-6 -15 -7 -36 -4 -44 6 -15 8 -15 24 -1 32 29 104 49 155 43 65 -7 127 -43
123 -70 -4 -25 -29 -28 -34 -4 -2 13 1 16 12 12 28 -11 17 5 -15 21 -29 15
-32 15 -45 -2 -13 -17 -15 -17 -33 5 -27 31 -73 28 -148 -8 -69 -34 -99 -73
-113 -149 -18 -98 31 -201 120 -250 57 -32 157 -35 210 -7 109 57 159 167 126
279 -9 29 -27 65 -40 80 -15 17 -22 34 -19 46 3 11 1 33 -5 49 -9 25 -1 45 63
174 l73 145 66 -59 65 -59 -15 -41 c-23 -66 -18 -84 36 -142 27 -29 47 -55 44
-58 -3 -4 -12 -31 -20 -63 -15 -55 -14 -57 13 -113 40 -80 40 -189 1 -282 -15
-35 -25 -66 -22 -70 10 -9 104 100 128 149 57 113 70 228 36 318 -16 44 -18
57 -8 80 7 16 13 39 13 53 1 14 5 39 10 55 7 29 7 29 -8 10 -14 -17 -16 -18
-17 -3 0 20 -32 78 -42 78 -5 0 -8 5 -8 10 0 6 11 8 25 4 20 -5 25 -2 25 12 0
14 -3 15 -8 6 -7 -10 -15 -10 -36 -2 -15 5 -24 15 -21 20 4 6 11 24 15 41 8
25 7 30 -6 25 -8 -3 -17 1 -20 9 -4 8 -16 15 -28 15 -17 1 -16 3 9 14 29 12
27 13 -32 12 -34 -1 -65 -4 -68 -8 -12 -12 -42 4 -58 30 -30 48 -56 74 -68 67
-7 -5 5 -23 32 -51 24 -24 39 -44 34 -44 -5 0 -28 21 -52 47 -24 25 -46 44
-49 40 -8 -8 26 -52 56 -71 l25 -15 -23 -1 c-23 0 -84 51 -93 77 -3 10 -12 10
-41 1 -29 -9 -41 -8 -53 2 -22 18 -18 33 6 20 29 -16 35 -5 15 25 -9 14 -14
30 -11 35 3 5 -2 13 -10 18 -22 12 -9 86 20 120 l23 26 68 -23 c38 -13 76 -30
85 -37 8 -8 19 -14 24 -14 11 0 136 -103 130 -108 -2 -3 -11 0 -19 7 -11 9
-14 8 -12 -6 1 -11 -13 -22 -42 -33 l-42 -16 45 -44 c25 -24 45 -39 45 -33 0
7 -4 14 -10 18 -5 3 -19 20 -31 38 -19 27 -14 24 29 -15 48 -45 72 -58 72 -40
0 4 -18 25 -40 46 -22 22 -37 42 -34 45 3 3 25 -16 48 -42 24 -26 50 -47 57
-47 7 0 -11 25 -41 55 -30 30 -50 55 -44 55 6 0 21 -12 35 -26 37 -40 121
-105 127 -99 4 3 -21 31 -53 61 -33 30 -51 51 -40 45 11 -5 45 -32 77 -60 31
-28 62 -51 70 -51 7 0 -12 23 -42 51 -65 60 -36 50 33 -11 71 -62 51 -70 -93
-36 -14 4 -19 4 -12 0 6 -3 12 -12 12 -20 0 -8 4 -14 10 -14 5 0 26 -24 45
-53 28 -42 35 -63 34 -98 0 -24 5 -70 12 -101 11 -52 10 -63 -9 -120 -12 -34
-18 -65 -13 -68 16 -9 31 -84 31 -152 0 -38 3 -68 8 -68 8 1 74 143 103 226
46 132 34 273 -33 365 -25 35 -31 52 -29 86 3 43 -14 84 -55 139 -13 17 -24
40 -24 52 0 44 -22 73 -92 122 -40 28 -74 57 -74 63 -1 7 -2 18 -3 25 -2 24
-45 9 -51 -18 -8 -36 -48 -120 -57 -120 -4 0 -18 9 -31 18 -21 17 -22 20 -8
32 14 11 16 10 10 -6 -4 -14 -1 -13 15 6 11 14 21 30 21 36 0 6 6 17 14 23 15
13 27 79 15 87 -8 5 -52 -48 -51 -63 0 -4 -5 -17 -11 -28 -6 -11 -12 -26 -13
-34 -5 -30 -22 -32 -79 -7 -101 45 -155 28 -155 -51 0 -57 -25 -38 -39 30 -7
34 -17 74 -23 88 -12 33 -52 53 -78 39 -10 -5 -30 -10 -43 -10 -24 0 -37 -16
-37 -46 0 -12 8 -13 35 -8 31 5 36 3 45 -20 12 -33 0 -67 -33 -89 -25 -16 -26
-16 -38 21 -6 20 -18 45 -27 55 -20 23 -73 22 -123 -3 -78 -40 -85 -41 -83
-11 0 14 -5 35 -12 46 -7 11 -13 24 -12 28 1 13 -41 67 -52 67 -5 0 -6 -17 -3
-37z m435 -20 c9 -10 18 -34 21 -53 3 -19 9 -50 13 -67 7 -36 3 -38 -45 -22
-33 12 -37 19 -20 36 7 7 9 22 4 40 -5 15 -9 32 -9 37 -1 5 -10 13 -21 17 -14
6 -9 7 15 4 33 -6 34 -5 16 10 -16 12 -17 15 -4 15 8 0 22 -8 30 -17z m458
-29 c0 -8 -4 -14 -8 -14 -5 0 -21 -27 -37 -60 -15 -32 -31 -57 -35 -55 -4 3 5
31 21 62 15 32 31 66 34 76 5 20 25 14 25 -9z m61 -173 c17 -35 28 -65 25 -68
-2 -3 -29 16 -59 40 -31 25 -63 49 -72 54 -15 9 -14 14 6 56 l23 46 23 -32
c13 -18 37 -61 54 -96z m-972 81 l20 -39 -69 -51 c-39 -29 -72 -52 -74 -52 -7
0 33 87 63 136 14 24 29 44 33 44 4 0 16 -17 27 -38z m-101 -19 c-20 -42 -27
-63 -32 -94 -5 -25 -14 -39 -30 -47 -29 -13 -37 -7 -26 21 5 12 11 35 15 50 6
30 46 77 65 77 6 0 10 -3 8 -7z m1112 -13 c17 -12 31 -33 35 -53 3 -17 11 -42
17 -54 15 -31 5 -38 -26 -18 -16 11 -26 26 -26 42 0 13 -9 42 -19 63 -22 46
-20 48 19 20z m-625 -34 c6 0 18 4 28 8 9 5 29 5 45 0 41 -11 41 -11 51 -13 5
0 11 -11 14 -23 7 -24 -10 -41 -30 -33 -7 2 -13 -1 -13 -7 0 -7 12 -8 32 -4
l31 6 -19 -22 c-10 -12 -14 -18 -7 -15 6 4 14 3 18 -3 3 -5 1 -10 -4 -10 -6 0
-11 -7 -11 -15 0 -8 5 -15 11 -15 6 0 7 -5 2 -12 -4 -7 -6 -21 -4 -31 1 -12
-5 -20 -18 -24 -12 -3 -21 -13 -22 -22 0 -14 -1 -14 -7 -1 -8 17 -72 21 -72 5
0 -5 -4 -3 -10 5 -13 20 -23 6 -15 -20 5 -16 10 -19 18 -11 14 14 30 15 22 1
-3 -5 -2 -10 3 -10 6 0 13 8 16 17 5 11 10 13 14 7 4 -6 15 -13 25 -17 13 -5
17 -1 18 16 0 21 1 21 9 2 5 -12 4 -24 -4 -30 -17 -16 -5 -144 18 -178 l19
-28 42 93 c65 145 77 169 83 163 3 -2 11 0 18 6 31 25 21 -17 -25 -108 -28
-54 -50 -95 -50 -90 -1 4 20 48 45 98 25 50 40 88 33 84 -10 -7 -119 -227
-119 -241 0 -3 4 -2 10 1 6 3 7 -1 3 -10 -4 -13 -8 -14 -14 -4 -4 8 -11 10
-15 6 -4 -3 -1 -14 7 -24 11 -14 11 -15 0 -9 -10 7 -12 3 -6 -15 4 -13 13 -27
19 -31 20 -13 -2 -8 -54 12 -64 25 -116 25 -180 0 l-50 -20 16 25 c12 19 13
25 3 25 -19 0 5 23 28 27 35 7 134 9 139 4 8 -9 64 -7 64 1 0 4 -9 12 -19 17
-15 8 -20 7 -26 -7 -6 -16 -7 -16 -20 2 -12 16 -17 17 -30 6 -23 -19 -18 4 6
26 19 17 21 26 16 82 -4 37 -2 62 3 62 6 0 10 3 10 8 0 4 -21 7 -47 7 -69 0
-85 9 -73 39 6 18 5 26 -4 29 -10 4 -12 27 -9 89 2 45 4 90 4 98 1 27 10 45
17 34 4 -5 12 -9 17 -8z m-75 -178 c-3 -64 -1 -71 14 -65 10 4 15 -10 20 -55
9 -90 7 -126 -6 -131 -8 -3 -6 -6 5 -6 24 -1 35 35 30 97 -5 43 -3 52 11 52
13 0 16 -12 16 -74 0 -41 5 -78 10 -81 21 -13 9 -27 -17 -22 -15 3 -37 0 -48
-5 -11 -6 -17 -7 -13 -3 4 4 -4 29 -17 56 -30 58 -32 79 -4 29 29 -51 14 0
-22 74 -16 33 -29 61 -29 63 0 2 9 3 19 3 14 0 18 5 14 20 -6 21 4 90 13 90 3
0 5 -19 4 -42z m258 -29 c-3 -33 -1 -39 15 -39 20 0 20 7 1 80 -11 41 11 11
30 -42 16 -42 16 -50 2 -75 -8 -15 -15 -24 -16 -20 0 5 5 17 11 29 6 11 9 22
6 24 -5 5 -61 -110 -71 -146 l-7 -25 16 25 c12 18 14 19 10 5 -4 -11 -10 -28
-12 -37 -3 -10 -10 -18 -15 -18 -5 0 -6 5 -3 10 3 6 1 10 -6 10 -17 0 -3 159
16 181 11 11 13 29 9 65 -4 40 -3 45 6 31 7 -10 10 -36 8 -58z m102 20 c0 -5
-4 -9 -8 -9 -9 0 -32 44 -32 58 1 10 40 -38 40 -49z m-400 -13 c-11 -29 -18
-62 -15 -72 4 -12 1 -10 -8 5 -13 21 -12 29 6 72 28 66 42 62 17 -5z m-200
-63 c-30 -26 -70 -62 -89 -81 -18 -18 -35 -31 -36 -30 -21 29 -65 98 -65 101
0 5 136 42 180 50 64 11 65 7 10 -40z m843 15 c42 -11 77 -22 77 -25 0 -2 -14
-25 -32 -51 -17 -26 -32 -48 -33 -49 -1 -2 -26 20 -56 48 -30 28 -72 65 -94
81 l-40 30 50 -6 c28 -4 85 -16 128 -28z m-1108 -8 c3 -6 -1 -13 -9 -16 -19
-7 -50 -88 -42 -109 3 -9 -1 -43 -8 -76 -14 -59 -14 -74 4 -154 7 -32 5 -46
-12 -77 -12 -21 -25 -38 -29 -38 -8 0 -32 63 -49 125 -13 52 -13 130 1 180 27
100 119 205 144 165z m1348 -52 c47 -76 57 -103 64 -173 6 -63 -6 -136 -34
-207 -17 -43 -29 -48 -43 -15 -6 12 -15 29 -22 39 -9 13 -9 25 1 56 9 27 11
62 7 108 -4 38 -8 89 -10 114 -1 25 -10 62 -19 82 -21 47 -21 48 3 48 14 0 31
-17 53 -52z m-1138 -86 c7 -23 7 -23 -25 -7 -31 16 -31 17 -14 36 19 21 25 17
39 -29z m879 29 c17 -19 17 -20 -13 -36 -17 -8 -31 -14 -31 -12 0 7 22 67 24
67 2 0 11 -9 20 -19z m-900 -51 c8 0 18 -6 24 -13 15 -17 -1 -43 -72 -117 -44
-45 -61 -58 -67 -48 -18 28 -8 -9 11 -39 12 -20 28 -33 40 -33 33 0 35 -28 5
-89 -40 -81 -43 -148 -12 -241 l25 -75 -34 39 c-43 50 -78 123 -100 209 -18
71 -18 67 30 184 l26 62 -21 35 c-26 44 -20 75 27 139 l35 48 35 -30 c19 -17
41 -31 48 -31z m1005 6 c47 -67 48 -87 10 -152 -27 -48 -34 -54 -40 -38 -4 10
-28 39 -54 64 -58 56 -80 94 -62 108 6 5 21 12 33 16 11 3 31 17 44 31 27 29
31 27 69 -29z m-589 -161 c0 -2 -9 -9 -20 -15 -24 -13 -50 -2 -29 11 15 9 49
12 49 4z m-466 -47 c5 -29 4 -38 -7 -38 -8 0 -20 7 -27 15 -10 12 -9 20 5 41
20 30 20 30 29 -18z m498 -30 c-2 -40 -6 -75 -8 -77 -10 -11 -16 13 -16 71 0
80 0 78 16 78 10 0 12 -15 8 -72z m525 19 c-4 -14 -35 -33 -41 -26 -3 3 -3 22
1 44 l6 38 19 -23 c10 -13 17 -28 15 -33z m-472 -41 c-20 -36 -38 -66 -40 -66
-7 0 1 120 8 127 14 13 17 -5 6 -36 -6 -18 -9 -34 -6 -37 3 -3 11 12 17 33 16
48 30 67 42 55 6 -6 -6 -36 -27 -76z m567 -59 c21 -55 -40 -227 -108 -305
l-32 -37 25 75 c31 92 28 162 -11 239 -32 61 -30 83 4 91 15 3 33 20 44 42
l20 36 24 -57 c13 -31 28 -69 34 -84z m-701 104 c6 -17 19 -47 30 -67 10 -21
17 -39 15 -41 -7 -7 -87 118 -81 127 11 18 26 10 36 -19z m-51 6 c0 -7 14 -29
31 -50 17 -20 26 -37 22 -37 -15 0 -64 56 -56 63 3 4 -4 7 -17 7 -19 0 -20 2
-10 15 15 18 30 19 30 2z m94 -18 c11 -55 5 -65 -14 -24 -23 49 -24 55 -6 55
7 0 16 -14 20 -31z m129 -21 c-38 -43 -36 -53 3 -16 l40 38 27 -26 c25 -23 38
-52 17 -39 -5 3 -28 -4 -51 -15 -22 -12 -43 -19 -46 -16 -6 5 59 41 70 38 4
-1 7 5 7 14 0 15 -3 14 -27 -1 -78 -50 -102 -71 -98 -85 6 -21 -6 -37 -38 -49
-19 -8 -27 -7 -27 1 0 6 -9 3 -20 -7 -11 -10 -17 -22 -14 -26 3 -5 -1 -6 -9
-3 -8 3 -26 -10 -42 -31 -29 -36 -55 -46 -55 -21 0 8 16 24 36 36 19 12 33 25
30 27 -3 3 -17 -2 -32 -11 -14 -10 -28 -15 -32 -12 -8 8 -1 13 42 31 21 9 35
11 31 6 -10 -17 6 -13 27 6 10 9 18 26 18 38 0 30 24 49 53 41 24 -6 64 23 51
37 -8 8 34 67 48 67 7 0 2 -10 -9 -22z m-180 -53 c34 -28 53 -56 25 -38 -7 4
-24 8 -38 9 -37 3 -82 23 -75 33 3 6 21 1 41 -11 19 -11 37 -18 40 -15 3 3
-12 15 -34 26 -45 23 -56 36 -47 51 4 6 15 4 28 -7 13 -10 39 -31 60 -48z
m277 -19 c0 -10 -22 -18 -71 -26 -39 -7 -73 -10 -75 -7 -5 5 109 44 134 46 6
1 12 -5 12 -13z m-327 -13 c112 -30 91 -37 -53 -18 -14 2 -29 35 -16 35 4 0
34 -8 69 -17z m26 -37 c-12 -10 -79 -16 -79 -6 0 5 19 10 42 10 23 0 39 -2 37
-4z m48 -12 c-8 -8 -106 -44 -127 -47 -8 -1 -15 5 -15 13 0 10 16 17 54 23 30
4 57 10 60 12 2 3 11 5 19 5 9 0 12 -3 9 -6z m257 -15 c19 -17 -21 -19 -83 -5
-35 8 -66 18 -70 21 -9 10 143 -6 153 -16z m-139 -10 c4 -6 14 -8 22 -5 18 7
83 -14 83 -26 0 -11 -7 -10 -41 8 -17 8 -33 13 -36 10 -3 -2 13 -14 36 -26 38
-19 56 -51 29 -50 -16 1 -126 100 -110 100 6 0 14 -5 17 -11z m-6 -32 c5 1 23
-14 41 -32 19 -19 40 -35 48 -35 12 0 12 -3 2 -15 -15 -18 -34 -20 -28 -2 2 6
-11 27 -29 45 -39 40 -43 32 -7 -15 14 -19 23 -41 20 -49 -9 -24 -22 -10 -55
62 -34 73 -38 89 -15 59 8 -11 19 -19 23 -18z m-104 -52 c-13 -33 -30 -60 -37
-60 -18 0 -13 16 24 82 39 70 46 58 13 -22z m88 -2 c11 -28 13 -44 6 -49 -14
-8 -15 -7 -27 51 l-11 50 2 -65 c2 -52 -1 -65 -13 -65 -12 0 -14 13 -11 70 1
39 5 74 8 78 7 11 26 -18 46 -70z m-124 8 c-12 -17 -26 -28 -31 -25 -5 4 3 19
18 35 35 36 43 30 13 -10z m57 -26 c-4 -19 -12 -35 -18 -35 -5 0 -7 7 -4 16 3
9 9 27 12 40 10 37 17 20 10 -21z m97 -55 c-4 -4 -18 -11 -30 -15 -18 -5 -22
-3 -17 9 6 15 33 26 47 18 5 -2 5 -8 0 -12z"/>
<path d="M1076 1772 c-3 -6 4 -12 17 -16 32 -8 67 -7 67 2 0 4 -12 7 -27 7
-16 -1 -33 3 -40 7 -6 5 -14 5 -17 0z"/>
<path d="M1070 1730 c0 -10 37 -20 73 -20 17 0 27 5 25 11 -4 12 -98 21 -98 9z"/>
<path d="M1090 1689 c0 -5 18 -9 40 -9 22 0 40 3 40 8 0 4 -18 8 -40 8 -22 1
-40 -2 -40 -7z"/>
<path d="M1150 1660 c0 -5 -3 -9 -7 -7 -5 1 -8 -2 -8 -8 0 -5 5 -9 12 -7 17 4
6 -25 -13 -32 -8 -3 -14 -1 -14 4 0 6 -4 10 -10 10 -5 0 -7 -7 -4 -15 9 -22
54 -19 55 3 0 9 2 27 5 40 2 12 -1 22 -6 22 -6 0 -10 -4 -10 -10z"/>
<path d="M1304 1872 c-6 -4 -17 -23 -24 -44 -12 -32 -11 -38 5 -54 17 -17 17
-17 10 17 -7 33 -5 32 59 -36 39 -42 65 -64 66 -54 0 9 -7 22 -15 29 -9 7 -13
15 -10 18 3 3 19 -7 35 -23 17 -16 30 -24 30 -18 0 5 -9 18 -20 28 -11 10 -18
21 -15 23 3 3 20 -9 39 -27 19 -18 36 -29 39 -23 4 5 -8 23 -26 40 -30 29 -35
30 -72 22 -38 -9 -42 -8 -67 22 -16 18 -28 37 -28 43 0 5 14 -6 30 -25 16 -19
30 -30 30 -24 0 5 -5 15 -12 22 -8 8 -8 12 -1 12 6 0 16 -7 23 -15 7 -8 19
-15 28 -15 12 0 10 6 -8 25 -32 34 -13 32 22 -2 26 -25 42 -21 16 5 -7 7 -8
12 -2 12 6 0 35 -22 66 -50 61 -54 68 -58 68 -36 0 26 -122 106 -160 106 -9 0
-20 4 -25 9 -14 13 -68 22 -81 13z"/>
<path d="M1495 1750 c16 -16 33 -30 39 -30 5 0 -3 14 -19 30 -16 17 -33 30
-39 30 -5 0 3 -13 19 -30z"/>
<path d="M1325 1750 c5 -24 32 -60 47 -60 14 0 8 14 -22 49 -26 31 -29 32 -25
11z"/>
<path d="M959 1738 c-25 -22 -42 -48 -31 -48 6 0 20 14 32 30 23 32 23 37 -1
18z"/>
<path d="M1301 1721 c12 -17 27 -31 31 -31 14 0 -11 39 -33 51 -20 10 -20 9 2
-20z"/>
<path d="M741 1649 c-19 -22 -31 -42 -28 -45 9 -9 22 2 57 46 41 52 16 51 -29
-1z"/>
<path d="M1470 1684 c0 -14 65 -84 78 -84 9 0 0 16 -24 44 -36 41 -54 54 -54
40z"/>
<path d="M241 1097 c-12 -15 -5 -27 16 -27 7 0 13 9 13 20 0 23 -13 26 -29 7z"/>
<path d="M1996 1094 c-9 -22 -2 -27 24 -19 17 5 19 10 9 21 -15 18 -25 18 -33
-2z"/>
<path d="M1434 1031 c-3 -101 -83 -224 -166 -253 -15 -5 -28 -16 -28 -23 0 -9
-11 -12 -39 -8 -31 4 -39 2 -43 -13 -4 -17 1 -19 56 -18 81 2 83 3 66 14 -11
7 -6 8 17 4 26 -5 40 -1 67 20 35 26 68 74 81 113 5 19 3 22 -11 16 -12 -4
-15 -3 -10 5 4 7 14 12 22 12 19 0 21 162 1 178 -9 8 -12 -2 -13 -47z"/>
<path d="M55 1070 c-18 -7 -18 -9 10 -19 16 -7 52 -17 80 -23 27 -6 56 -15 63
-21 19 -15 25 -2 18 38 l-7 35 -72 -1 c-40 0 -81 -4 -92 -9z"/>
<path d="M2045 1068 c-2 -7 -5 -26 -8 -41 -4 -23 -2 -27 12 -21 9 4 51 16 94
27 42 11 77 23 77 27 0 22 -168 29 -175 8z"/>
<path d="M768 1029 c-2 -7 -2 -25 0 -40 3 -20 9 -26 21 -22 12 3 11 0 -4 -13
-17 -14 -17 -16 -2 -11 9 4 17 2 17 -3 0 -6 4 -10 9 -10 12 0 -13 103 -26 107
-6 2 -13 -1 -15 -8z"/>
<path d="M780 923 c0 -22 113 -134 159 -158 25 -13 38 -24 29 -25 -9 0 -20 5
-23 10 -8 13 -35 13 -35 1 0 -5 13 -12 30 -16 16 -4 32 -11 35 -16 4 -5 13 -9
22 -9 12 0 13 3 4 13 -6 8 -7 17 -1 23 5 5 1 19 -11 33 -11 13 -22 21 -26 18
-3 -4 5 -15 18 -26 13 -11 20 -20 15 -21 -25 -1 -101 57 -155 117 -34 37 -61
62 -61 56z"/>
<path d="M807 824 c8 -20 74 -83 88 -84 6 0 4 4 -4 9 -8 5 -10 14 -6 22 6 9 3
11 -9 6 -14 -6 -17 -3 -12 8 3 9 2 13 -4 10 -6 -3 -10 1 -10 9 0 8 -9 20 -19
26 -27 14 -31 13 -24 -6z"/>
<path d="M1045 740 c-7 -11 4 -16 46 -23 22 -3 25 0 21 15 -5 20 -56 26 -67 8z"/>
<path d="M1033 688 c-100 -13 -113 -21 -113 -68 l0 -40 -104 0 c-144 0 -226
10 -226 26 0 8 -3 14 -8 14 -15 0 -52 -31 -52 -44 0 -7 -14 -12 -35 -13 -34
-1 -48 11 -22 20 6 2 9 8 5 12 -7 7 -57 -43 -58 -59 0 -4 8 -5 18 -1 9 4 33 9
53 12 33 5 37 3 47 -25 9 -27 17 -31 79 -43 89 -18 286 -18 336 0 43 15 77 60
77 103 0 24 3 26 32 21 41 -6 59 -30 53 -70 -3 -18 0 -35 5 -38 6 -3 10 3 10
15 0 27 50 101 63 93 5 -3 7 -1 4 4 -4 6 0 13 8 16 9 4 12 1 8 -9 -8 -22 11
-17 26 8 13 21 14 21 27 4 7 -11 20 -16 29 -13 8 4 15 2 15 -4 0 -6 4 -7 10
-4 6 4 2 15 -9 27 -11 11 -24 17 -30 13 -6 -3 -11 -2 -11 4 0 10 -18 10 -37
-2 -7 -4 -13 0 -15 9 -3 15 -4 15 -18 -1 -12 -15 -12 -17 -1 -10 10 5 12 4 7
-3 -11 -18 -39 -15 -32 3 3 9 -1 18 -9 21 -24 10 -8 22 22 17 121 -19 133 -24
148 -56 l14 -32 -2 35 c-2 33 -5 36 -52 47 -64 16 -183 21 -262 11z m107 -16
c0 -10 -70 -35 -85 -30 -5 2 -9 6 -7 11 1 4 -5 7 -13 7 -8 0 -15 5 -15 10 0 6
27 10 60 10 33 0 60 -4 60 -8z m-135 -12 c3 -5 -5 -15 -19 -22 -30 -13 -34
-28 -8 -29 14 0 14 -2 -3 -9 -37 -16 -43 -12 -36 23 6 24 12 32 29 31 11 0 19
3 16 8 -3 4 -1 8 5 8 5 0 13 -4 16 -10z m142 -62 c-11 -10 -24 -15 -28 -12
-13 8 -1 24 18 24 21 0 11 11 -14 14 -10 2 -21 -1 -24 -7 -4 -5 -13 -7 -20 -5
-9 3 -3 10 16 20 27 14 31 14 51 -1 21 -16 21 -16 1 -33z m-479 -28 c34 -6 66
-9 71 -6 4 3 21 1 37 -4 l29 -10 -33 3 c-40 4 -50 -8 -27 -33 11 -12 13 -20 6
-25 -6 -3 -13 0 -16 7 -4 10 -24 13 -68 12 -34 -1 -66 -2 -72 -4 -23 -6 -36 1
-45 25 -14 37 -3 57 29 51 14 -3 54 -10 89 -16z m348 4 c-3 -9 -6 -20 -6 -26
0 -6 -9 -3 -20 7 -11 10 -22 16 -25 13 -3 -3 1 -11 10 -18 17 -14 20 -36 5
-45 -6 -4 -9 -1 -8 7 2 8 -5 12 -17 10 -16 -2 -17 -1 -5 7 18 12 7 26 -12 15
-23 -15 -56 -12 -50 6 4 12 2 13 -8 3 -10 -9 -10 -15 -2 -26 18 -21 3 -28 -24
-10 -22 14 -24 14 -24 0 0 -9 -5 -19 -12 -23 -7 -5 -9 -2 -5 8 3 11 -1 18 -13
21 -11 3 -21 0 -22 -5 -2 -6 -9 -3 -16 5 -11 13 -8 15 25 13 43 -3 63 2 63 15
0 6 -9 5 -20 -1 -14 -7 -20 -7 -20 0 0 5 6 10 13 11 76 3 130 10 144 18 28 16
56 14 49 -5z m-138 -81 c4 3 14 1 22 -4 11 -8 5 -9 -22 -7 -21 2 -38 1 -38 -3
0 -4 -20 -7 -45 -6 -39 2 -43 4 -29 17 11 12 18 12 34 2 16 -9 22 -9 32 2 9
10 17 11 25 4 7 -5 16 -7 21 -5z"/>
<path d="M598 563 c-30 -8 -20 -26 12 -21 21 3 30 0 33 -11 3 -11 5 -9 6 5 1
17 -22 40 -32 33 -1 -1 -10 -3 -19 -6z"/>
<path d="M534 651 c-37 -9 -114 -51 -114 -63 0 -13 16 -9 29 6 28 33 171 61
186 36 3 -5 -1 -10 -9 -10 -9 0 -16 -4 -16 -9 0 -5 13 -9 30 -9 25 1 28 4 19
19 -19 36 -58 46 -125 30z"/>
<path d="M1638 650 c-10 -6 -22 -19 -27 -29 -9 -15 -6 -18 19 -19 17 0 30 4
30 9 0 5 -7 9 -16 9 -8 0 -12 5 -9 10 15 25 158 -3 186 -36 13 -15 29 -19 29
-6 0 5 -21 20 -48 35 -54 29 -138 43 -164 27z"/>
<path d="M1246 607 c-11 -41 -6 -63 22 -95 23 -28 37 -34 97 -44 76 -11 206
-6 299 13 51 11 59 16 68 42 10 27 14 29 47 24 20 -3 44 -8 55 -13 16 -6 17
-4 7 12 -21 38 -41 57 -48 49 -5 -4 -2 -10 5 -12 25 -9 11 -23 -22 -20 -23 1
-36 8 -40 19 -6 26 -48 39 -61 21 -8 -11 -43 -16 -131 -20 -151 -7 -250 3
-274 27 -18 18 -18 17 -24 -3z m48 -26 c3 -4 -3 -16 -14 -26 -11 -10 -20 -13
-20 -7 0 6 -3 17 -6 26 -4 11 0 16 14 16 12 0 23 -4 26 -9z m430 -6 c9 -25
-14 -73 -38 -77 -19 -4 -22 -1 -18 14 2 10 0 18 -4 18 -17 0 -12 49 5 53 33 9
49 7 55 -8z m-81 -15 c3 -11 0 -20 -5 -20 -6 0 -5 -6 2 -15 20 -24 2 -34 -76
-44 -132 -16 -284 5 -284 40 0 24 33 49 64 49 26 -1 28 -2 13 -11 -9 -6 -15
-14 -12 -19 3 -5 1 -11 -5 -15 -5 -3 -10 -1 -10 4 0 6 -4 11 -10 11 -5 0 -10
-7 -10 -15 0 -15 20 -20 78 -17 18 1 31 -2 28 -7 -3 -5 7 -8 22 -7 48 2 111
56 66 56 -8 0 -12 -4 -9 -10 10 -17 -31 -11 -55 8 -21 17 -21 17 22 14 34 -2
109 5 169 17 4 0 9 -8 12 -19z m-229 -16 c9 -24 7 -28 -9 -14 -12 10 -15 9
-15 -4 0 -16 -2 -16 -15 -2 -22 22 -18 27 26 35 4 0 10 -6 13 -15z"/>
<path d="M1540 532 c0 -13 -4 -20 -10 -17 -5 3 -20 -3 -32 -14 -18 -17 -19
-21 -5 -21 8 0 19 4 22 10 3 5 18 7 33 4 15 -3 43 2 62 10 19 8 29 15 21 16
-7 0 -11 6 -8 14 9 22 -28 26 -42 4 -6 -10 -9 -23 -6 -28 4 -6 0 -10 -8 -10
-10 0 -13 7 -10 20 3 11 9 20 14 20 5 0 9 4 9 8 0 4 -9 8 -20 8 -14 0 -20 -7
-20 -24z"/>
<path d="M1049 517 c-54 -36 -86 -91 -84 -146 4 -103 71 -171 169 -171 96 0
169 73 171 171 2 74 -65 157 -133 165 -26 3 -30 0 -28 -20 0 -14 3 -23 5 -21
2 3 12 0 22 -6 11 -5 19 -6 18 -2 -3 21 2 34 12 28 6 -4 8 -10 5 -13 -4 -3 1
-16 10 -30 8 -13 13 -27 9 -30 -3 -4 -9 -1 -13 5 -22 35 -132 39 -151 5 -5 -9
-13 -14 -17 -10 -4 4 -2 14 4 21 6 7 8 18 4 23 -4 5 -5 8 -3 7 2 -2 10 5 17
15 12 16 13 15 14 -5 0 -16 4 -21 15 -17 12 5 13 10 4 20 -9 11 -9 14 0 14 7
0 9 5 6 10 -9 15 -18 13 -56 -13z m216 -68 c-3 -4 -2 -9 2 -12 5 -2 2 -2 -6 0
-9 2 -11 -2 -7 -13 3 -8 6 -22 6 -30 0 -8 6 -11 15 -8 8 4 15 1 15 -5 0 -7 -7
-14 -15 -17 -12 -5 -13 -9 -4 -20 10 -12 9 -13 -5 -8 -21 8 -21 -5 2 -22 16
-12 16 -13 -4 -14 -30 0 -58 -32 -41 -49 10 -10 6 -10 -16 -2 -16 6 -26 7 -23
3 2 -4 0 -14 -6 -22 -8 -12 -9 -11 -4 3 4 12 2 17 -6 14 -7 -2 -12 -13 -10
-23 3 -18 3 -18 -13 1 -14 17 -16 17 -11 3 4 -12 0 -18 -10 -18 -10 0 -14 6
-10 15 3 8 -3 19 -14 25 -26 14 -29 13 -23 -10 3 -11 3 -20 0 -20 -11 0 -62
53 -59 61 1 5 -5 12 -13 15 -20 8 -19 24 2 24 9 0 13 3 9 8 -4 4 -13 7 -19 7
-5 0 -12 6 -14 13 -3 6 0 12 7 12 6 0 8 -5 4 -12 -5 -7 -3 -8 6 -3 10 6 10 11
-3 20 -21 15 -22 29 -3 22 8 -3 16 2 19 14 3 12 0 19 -10 19 -8 0 -11 -5 -7
-12 4 -7 3 -8 -4 -4 -6 4 -9 13 -6 21 4 8 11 12 17 8 6 -4 8 0 4 9 -6 16 10
38 28 38 5 0 4 -4 -4 -9 -12 -7 -12 -13 -3 -24 9 -10 9 -22 1 -46 -8 -22 -8
-40 0 -62 7 -21 7 -37 0 -50 -5 -10 -8 -19 -5 -19 2 0 13 -3 23 -6 15 -6 16
-4 6 7 -21 22 -14 33 8 13 29 -26 111 -28 143 -3 34 27 51 81 37 121 -8 22 -8
35 0 44 8 10 7 18 -5 29 -26 26 -18 31 9 5 13 -12 22 -26 20 -31z m-85 -24 c9
-11 15 -13 20 -5 5 8 9 6 13 -5 4 -9 3 -13 -3 -10 -6 4 -7 -5 -4 -22 4 -20 -1
-36 -16 -56 -30 -38 -78 -37 -112 1 -23 27 -24 32 -13 59 7 17 21 36 32 42 27
15 69 13 83 -4z"/>
<path d="M1092 388 c-18 -18 -15 -41 4 -34 12 5 15 2 10 -11 -6 -16 -5 -16 12
0 17 16 20 16 25 2 4 -8 12 -15 18 -15 8 0 6 7 -4 18 -10 10 -14 22 -10 25 10
11 23 8 21 -4 -2 -6 3 -14 10 -16 17 -7 15 15 -4 35 -15 15 -18 14 -31 -4 -14
-19 -58 -30 -47 -12 3 5 13 7 21 4 9 -4 13 -1 11 6 -6 17 -22 20 -36 6z"/>
<path d="M1960 2165 c-11 -13 -10 -14 3 -10 9 4 21 -2 30 -15 9 -13 17 -17 22
-11 15 26 -36 59 -55 36z"/>
</g>
</svg>
